<?xml version="1.0" encoding="UTF-8" standalone="no"?>
<svg width="16px" height="16px" viewBox="0 0 16 16" version="1.1" xmlns="http://www.w3.org/2000/svg" xmlns:xlink="http://www.w3.org/1999/xlink">
    <defs></defs>
    <g stroke="none" stroke-width="1" fill="none" fill-rule="evenodd">
        <path d="M12.296875,7.390625 C12.3906255,8.04687828 12.3385427,8.68749687 12.140625,9.3125 C11.9427073,9.93750313 11.5989608,10.4999975 11.109375,11 C10.3385378,11.7291703 9.45833828,12.1380204 8.46875,12.2265625 C7.47916172,12.3151046 6.55208766,12.0885444 5.6875,11.546875 L6.859375,10.40625 L2.5625,9.796875 L3.15625,14 L4.46875,12.734375 C5.69792281,13.6093794 7.03384695,14.0026046 8.4765625,13.9140625 C9.91927805,13.8255204 11.1979111,13.2552136 12.3125,12.203125 C12.9375031,11.5781219 13.3932277,10.8828163 13.6796875,10.1171875 C13.9661473,9.35155867 14.0937502,8.56250406 14.0625,7.75 L12.296875,7.390625 Z M5.015625,5 C5.78646219,4.27082969 6.66666172,3.86197961 7.65625,3.7734375 C8.64583828,3.68489539 9.57291234,3.91145563 10.4375,4.453125 L9.265625,5.59375 L13.5625,6.203125 L12.96875,2 L11.65625,3.265625 C10.4270772,2.39062062 9.09115305,1.99739539 7.6484375,2.0859375 C6.20572195,2.17447961 4.92708891,2.74478641 3.8125,3.796875 C3.18749687,4.42187813 2.73177227,5.11978781 2.4453125,5.890625 C2.15885273,6.66146219 2.03124984,7.44791266 2.0625,8.25 L3.828125,8.609375 C3.73437453,7.95312172 3.78645734,7.31250313 3.984375,6.6875 C4.18229266,6.06249687 4.52603922,5.5000025 5.015625,5 L5.015625,5 Z" id="progress" fill="#999999"></path>
    </g>
</svg>
