<?xml version="1.0" encoding="UTF-8" standalone="no"?>
<svg id="commit" width="14px" height="17px" viewBox="0 0 14 17" version="1.1" xmlns="http://www.w3.org/2000/svg" xmlns:xlink="http://www.w3.org/1999/xlink">
  <defs></defs>
  <g>
    <path d="M9.71612279,16 C9.79968879,16.1221358 9.89691866,16.2370662 10.0078125,16.3447917 C10.4453147,16.7697938 10.9982605,16.9881944 11.6666667,17 C12.3350728,16.9881944 12.8880186,16.7697938 13.3255208,16.3447917 C13.763023,15.9197895 13.9878472,15.3826421 14,14.7333333 C14,14.3083312 13.8936643,13.9276058 13.6809896,13.5911458 C13.4683149,13.2546858 13.1857657,12.9861121 12.8333333,12.7854167 L12.8333333,9.86354167 L12.8333333,5.66666667 C12.7968748,4.78124557 12.4322951,4.0020867 11.7395833,3.32916667 C11.0468715,2.65624664 10.2447962,2.30208351 9.33333333,2.26666667 L8.3125,2.26666667 L8.16666667,2.26666667 L8.16666667,0 L5.51512963,2.57577883 L5.51512963,2.57577883 C5.40291965,2.28061686 5.22860596,2.01820532 4.9921875,1.78854167 C4.55468531,1.36353954 4.00173945,1.14513895 3.33333333,1.13333333 C3.15879378,1.13641611 2.99212721,1.15358615 2.83333333,1.18484357 C2.67453945,1.15358615 2.50787289,1.13641611 2.33333333,1.13333333 C1.66492721,1.14513895 1.11198135,1.36353954 0.674479167,1.78854167 C0.236976979,2.21354379 0.0121528385,2.7506912 0,3.4 C0,3.82500213 0.106335742,4.20572748 0.319010417,4.5421875 C0.531685091,4.87864752 0.814234349,5.14722122 1.16666667,5.34791667 L1.16666667,12.7677083 C0.814234349,12.9684038 0.531685091,13.2369775 0.319010417,13.5734375 C0.106335742,13.9098975 0,14.2906229 0,14.715625 C0.0121528385,15.3649338 0.236976979,15.9020812 0.674479167,16.3270833 C1.11198135,16.7520855 1.66492721,16.9704861 2.33333333,16.9822917 C2.50787289,16.9792089 2.67453945,16.9620388 2.83333333,16.9307814 C2.99212721,16.9620388 3.15879378,16.9792089 3.33333333,16.9822917 C4.00173945,16.9704861 4.55468531,16.7520855 4.9921875,16.3270833 C5.09770651,16.2245792 5.19085399,16.1155514 5.27163002,16 L9.71612279,16 Z" fill="#333333"></path>
    <path d="M12,12.28125 L12,9.703125 L12,6 C11.9687498,5.21874609 11.656253,4.53125297 11.0625,3.9375 C10.468747,3.34374703 9.78125391,3.03125016 9,3 L8.125,3 L8,3 L8,1 L5,4 L8,7 L8,5 L9,5 C9.26041797,5.01041672 9.48958234,5.11458234 9.6875,5.3125 C9.88541766,5.51041766 9.98958328,5.73958203 10,6 L10,12.28125 C9.69791516,12.4583342 9.45573008,12.695311 9.2734375,12.9921875 C9.09114492,13.289064 9,13.6249981 9,14 C9.01041672,14.5729195 9.20312312,15.0468731 9.578125,15.421875 C9.95312688,15.7968769 10.4270805,15.9895833 11,16 C11.5729195,15.9895833 12.0468731,15.7968769 12.421875,15.421875 C12.7968769,15.0468731 12.9895833,14.5729195 13,14 C13,13.6249981 12.9088551,13.289064 12.7265625,12.9921875 C12.5442699,12.695311 12.3020848,12.4583342 12,12.28125 L12,12.28125 Z M11,15 C10.7187486,14.9895833 10.4843759,14.8906259 10.296875,14.703125 C10.1093741,14.5156241 10.015625,14.2812514 10.015625,14 C10.015625,13.7187486 10.1093741,13.4843759 10.296875,13.296875 C10.4843759,13.1093741 10.7187486,13.015625 11,13.015625 C11.2812514,13.015625 11.5156241,13.1093741 11.703125,13.296875 C11.8906259,13.4843759 11.984375,13.7187486 11.984375,14 C11.984375,14.2812514 11.8906259,14.5156241 11.703125,14.703125 C11.5156241,14.8906259 11.2812514,14.9895833 11,15 L11,15 Z M3,2 C2.42708047,2.01041672 1.95312688,2.20312312 1.578125,2.578125 C1.20312312,2.95312688 1.01041672,3.42708047 1,4 C1,4.37500188 1.09114492,4.71093602 1.2734375,5.0078125 C1.45573008,5.30468898 1.69791516,5.54166578 2,5.71875 L2,12.265625 C1.69791516,12.4427092 1.45573008,12.679686 1.2734375,12.9765625 C1.09114492,13.273439 1,13.6093731 1,13.984375 C1.01041672,14.5572945 1.20312312,15.0312481 1.578125,15.40625 C1.95312688,15.7812519 2.42708047,15.9739583 3,15.984375 C3.57291953,15.9739583 4.04687312,15.7812519 4.421875,15.40625 C4.79687688,15.0312481 4.98958328,14.5572945 5,13.984375 C5,13.6093731 4.90885508,13.273439 4.7265625,12.9765625 C4.54426992,12.679686 4.30208484,12.4427092 4,12.265625 L4,5.71875 C4.30208484,5.54166578 4.54426992,5.30468898 4.7265625,5.0078125 C4.90885508,4.71093602 5,4.37500188 5,4 C4.98958328,3.42708047 4.79687688,2.95312688 4.421875,2.578125 C4.04687312,2.20312312 3.57291953,2.01041672 3,2 L3,2 Z M3,15 C2.71874859,14.9895833 2.48437594,14.8906259 2.296875,14.703125 C2.10937406,14.5156241 2.015625,14.2812514 2.015625,14 C2.015625,13.7187486 2.10937406,13.4843759 2.296875,13.296875 C2.48437594,13.1093741 2.71874859,13.015625 3,13.015625 C3.28125141,13.015625 3.51562406,13.1093741 3.703125,13.296875 C3.89062594,13.4843759 3.984375,13.7187486 3.984375,14 C3.984375,14.2812514 3.89062594,14.5156241 3.703125,14.703125 C3.51562406,14.8906259 3.28125141,14.9895833 3,15 L3,15 Z M3,5 C2.71874859,4.98958328 2.48437594,4.89062594 2.296875,4.703125 C2.10937406,4.51562406 2.015625,4.28125141 2.015625,4 C2.015625,3.71874859 2.10937406,3.48437594 2.296875,3.296875 C2.48437594,3.10937406 2.71874859,3.015625 3,3.015625 C3.28125141,3.015625 3.51562406,3.10937406 3.703125,3.296875 C3.89062594,3.48437594 3.984375,3.71874859 3.984375,4 C3.984375,4.28125141 3.89062594,4.51562406 3.703125,4.703125 C3.51562406,4.89062594 3.28125141,4.98958328 3,5 L3,5 Z"></path>
  </g>
</svg>
