<svg xmlns="http://www.w3.org/2000/svg" xmlns:ns1="http://www.w3.org/1999/xlink" baseProfile="tiny" height="100%" preserveAspectRatio="xMidYMid meet" version="1.2" viewBox="(0, 0, 597.9, 385.2)" width="100%"><defs><g id="simple-arrow"><polyline fill="none" points="-10,4 0,0 -10,-4" stroke="black" stroke-width="1" /></g><g id="whole-drawing"><text font-family="sans-serif" font-size="20" text-anchor="middle" x="9.4" y="32.1" /><line stroke="white" stroke-width="1" x1="9.4" x2="9.4" y1="44.2" y2="383.2" /><text font-family="sans-serif" font-size="20" text-anchor="middle" x="139.4" y="32.1">UAC</text><line stroke="black" stroke-width="1" x1="139.4" x2="139.4" y1="44.2" y2="383.2" /><text font-family="sans-serif" font-size="20" text-anchor="middle" x="249.4" y="32.1">P1</text><line stroke="black" stroke-width="1" x1="249.4" x2="249.4" y1="44.2" y2="383.2" /><text font-family="sans-serif" font-size="20" text-anchor="middle" x="359.4" y="32.1">P2</text><line stroke="black" stroke-width="1" x1="359.4" x2="359.4" y1="44.2" y2="383.2" /><text font-family="sans-serif" font-size="20" text-anchor="middle" x="469.4" y="32.1">P3</text><line stroke="black" stroke-width="1" x1="469.4" x2="469.4" y1="44.2" y2="383.2" /><text font-family="sans-serif" font-size="20" text-anchor="middle" x="579.4" y="32.1">UAS</text><line stroke="black" stroke-width="1" x1="579.4" x2="579.4" y1="44.2" y2="383.2" /><line stroke="black" stroke-width="5" x1="172.4" x2="113.4" y1="56.2" y2="56.2" /><line stroke="black" stroke-width="1" x1="183.4" x2="172.4" y1="56.2" y2="56.2" /><line stroke="black" stroke-width="1" x1="205.4" x2="183.4" y1="77.2" y2="56.2" /><line stroke="black" stroke-width="1" x1="216.4" x2="205.4" y1="77.2" y2="77.2" /><use transform="rotate(0.0,217.4,77.2)" x="217.4" y="77.2" ns1:href="#simple-arrow" /><line stroke="black" stroke-width="5" x1="282.4" x2="216.4" y1="77.2" y2="77.2" /><line stroke="black" stroke-width="1" x1="293.4" x2="282.4" y1="77.2" y2="77.2" /><line stroke="black" stroke-width="1" x1="315.4" x2="293.4" y1="98.2" y2="77.2" /><line stroke="black" stroke-width="1" x1="326.4" x2="315.4" y1="98.2" y2="98.2" /><use transform="rotate(0.0,327.4,98.2)" x="327.4" y="98.2" ns1:href="#simple-arrow" /><line stroke="black" stroke-width="5" x1="392.4" x2="326.4" y1="98.2" y2="98.2" /><line stroke="black" stroke-width="1" x1="403.4" x2="392.4" y1="98.2" y2="98.2" /><line stroke="black" stroke-width="1" x1="425.4" x2="403.4" y1="119.2" y2="98.2" /><line stroke="black" stroke-width="1" x1="436.4" x2="425.4" y1="119.2" y2="119.2" /><use transform="rotate(0.0,437.4,119.2)" x="437.4" y="119.2" ns1:href="#simple-arrow" /><line stroke="black" stroke-width="5" x1="502.4" x2="436.4" y1="119.2" y2="119.2" /><line stroke="black" stroke-width="1" x1="513.4" x2="502.4" y1="119.2" y2="119.2" /><line stroke="black" stroke-width="1" x1="535.4" x2="513.4" y1="140.2" y2="119.2" /><line stroke="black" stroke-width="1" x1="546.4" x2="535.4" y1="140.2" y2="140.2" /><use transform="rotate(0.0,547.4,140.2)" x="547.4" y="140.2" ns1:href="#simple-arrow" /><line stroke="black" stroke-width="5" x1="612.4" x2="546.4" y1="140.2" y2="140.2" /><line stroke="black" stroke-width="5" x1="172.4" x2="113.4" y1="196.2" y2="196.2" /><line stroke="black" stroke-width="5" x1="232.9" x2="282.4" y1="224.2" y2="224.2" /><line stroke="black" stroke-width="5" x1="216.4" x2="232.9" y1="224.2" y2="224.2" /><rect fill="white" height="16.31" stroke="white" width="30.8" x="209.25" y="216.36" /><text font-family="sans-serif" font-size="14" text-anchor="middle" x="224.65" y="230.36">408</text><line stroke="black" stroke-width="1" x1="194.4" x2="216.4" y1="224.2" y2="224.2" /><line stroke="black" stroke-width="1" x1="166.9" x2="194.4" y1="245.2" y2="224.2" /><line stroke="black" stroke-width="1" x1="139.4" x2="166.9" y1="245.2" y2="245.2" /><use transform="rotate(180.0,138.4,245.2)" x="138.4" y="245.2" ns1:href="#simple-arrow" /><line stroke="black" stroke-width="5" x1="348.4" x2="392.4" y1="245.2" y2="245.2" /><line stroke="black" stroke-width="5" x1="326.4" x2="348.4" y1="245.2" y2="245.2" /><rect fill="white" height="16.31" stroke="white" width="30.8" x="322.0" y="237.36" /><text font-family="sans-serif" font-size="14" text-anchor="middle" x="337.4" y="251.36">408</text><line stroke="black" stroke-width="1" x1="304.4" x2="326.4" y1="245.2" y2="245.2" /><line stroke="black" stroke-width="1" x1="282.4" x2="304.4" y1="266.2" y2="245.2" /><line stroke="black" stroke-width="1" x1="260.4" x2="282.4" y1="266.2" y2="266.2" /><use transform="rotate(180.0,259.4,266.2)" x="259.4" y="266.2" ns1:href="#simple-arrow" /><line stroke="black" stroke-width="5" x1="238.4" x2="260.4" y1="266.2" y2="266.2" /><line stroke="black" stroke-width="5" x1="216.4" x2="238.4" y1="266.2" y2="266.2" /><rect fill="white" height="16.31" stroke="white" width="30.8" x="212.0" y="258.36" /><text font-family="sans-serif" font-size="14" text-anchor="middle" x="227.4" y="272.36">408</text><line stroke="black" stroke-width="1" x1="194.4" x2="216.4" y1="266.2" y2="266.2" /><line stroke="black" stroke-width="1" x1="166.9" x2="194.4" y1="287.2" y2="266.2" /><line stroke="black" stroke-width="1" x1="139.4" x2="166.9" y1="287.2" y2="287.2" /><use transform="rotate(180.0,138.4,287.2)" x="138.4" y="287.2" ns1:href="#simple-arrow" /><line stroke="black" stroke-width="5" x1="458.4" x2="502.4" y1="266.2" y2="266.2" /><line stroke="black" stroke-width="5" x1="436.4" x2="458.4" y1="266.2" y2="266.2" /><rect fill="white" height="16.31" stroke="white" width="30.8" x="432.0" y="258.36" /><text font-family="sans-serif" font-size="14" text-anchor="middle" x="447.4" y="272.36">408</text><line stroke="black" stroke-width="1" x1="414.4" x2="436.4" y1="266.2" y2="266.2" /><line stroke="black" stroke-width="1" x1="392.4" x2="414.4" y1="287.2" y2="266.2" /><line stroke="black" stroke-width="1" x1="370.4" x2="392.4" y1="287.2" y2="287.2" /><use transform="rotate(180.0,369.4,287.2)" x="369.4" y="287.2" ns1:href="#simple-arrow" /><line stroke="black" stroke-width="5" x1="348.4" x2="370.4" y1="287.2" y2="287.2" /><line stroke="black" stroke-width="5" x1="326.4" x2="348.4" y1="287.2" y2="287.2" /><rect fill="white" height="16.31" stroke="white" width="30.8" x="322.0" y="279.36" /><text font-family="sans-serif" font-size="14" text-anchor="middle" x="337.4" y="293.36">408</text><line stroke="black" stroke-width="1" x1="304.4" x2="326.4" y1="287.2" y2="287.2" /><line stroke="black" stroke-width="1" x1="282.4" x2="304.4" y1="308.2" y2="287.2" /><line stroke="black" stroke-width="1" x1="260.4" x2="282.4" y1="308.2" y2="308.2" /><use transform="rotate(180.0,259.4,308.2)" x="259.4" y="308.2" ns1:href="#simple-arrow" /><line stroke="black" stroke-width="5" x1="238.4" x2="260.4" y1="308.2" y2="308.2" /><line stroke="black" stroke-width="5" x1="216.4" x2="238.4" y1="308.2" y2="308.2" /><rect fill="white" height="16.31" stroke="white" width="30.8" x="212.0" y="300.36" /><text font-family="sans-serif" font-size="14" text-anchor="middle" x="227.4" y="314.36">408</text><line stroke="black" stroke-width="1" x1="194.4" x2="216.4" y1="308.2" y2="308.2" /><line stroke="black" stroke-width="1" x1="166.9" x2="194.4" y1="329.2" y2="308.2" /><line stroke="black" stroke-width="1" x1="139.4" x2="166.9" y1="329.2" y2="329.2" /><use transform="rotate(180.0,138.4,329.2)" x="138.4" y="329.2" ns1:href="#simple-arrow" /><line stroke="black" stroke-width="5" x1="568.4" x2="612.4" y1="287.2" y2="287.2" /><line stroke="black" stroke-width="5" x1="546.4" x2="568.4" y1="287.2" y2="287.2" /><rect fill="white" height="16.31" stroke="white" width="30.8" x="542.0" y="279.36" /><text font-family="sans-serif" font-size="14" text-anchor="middle" x="557.4" y="293.36">408</text><line stroke="black" stroke-width="1" x1="524.4" x2="546.4" y1="287.2" y2="287.2" /><line stroke="black" stroke-width="1" x1="502.4" x2="524.4" y1="308.2" y2="287.2" /><line stroke="black" stroke-width="1" x1="480.4" x2="502.4" y1="308.2" y2="308.2" /><use transform="rotate(180.0,479.4,308.2)" x="479.4" y="308.2" ns1:href="#simple-arrow" /><line stroke="black" stroke-width="5" x1="458.4" x2="480.4" y1="308.2" y2="308.2" /><line stroke="black" stroke-width="5" x1="436.4" x2="458.4" y1="308.2" y2="308.2" /><rect fill="white" height="16.31" stroke="white" width="30.8" x="432.0" y="300.36" /><text font-family="sans-serif" font-size="14" text-anchor="middle" x="447.4" y="314.36">408</text><line stroke="black" stroke-width="1" x1="414.4" x2="436.4" y1="308.2" y2="308.2" /><line stroke="black" stroke-width="1" x1="392.4" x2="414.4" y1="329.2" y2="308.2" /><line stroke="black" stroke-width="1" x1="370.4" x2="392.4" y1="329.2" y2="329.2" /><use transform="rotate(180.0,369.4,329.2)" x="369.4" y="329.2" ns1:href="#simple-arrow" /><line stroke="black" stroke-width="5" x1="348.4" x2="370.4" y1="329.2" y2="329.2" /><line stroke="black" stroke-width="5" x1="326.4" x2="348.4" y1="329.2" y2="329.2" /><rect fill="white" height="16.31" stroke="white" width="30.8" x="322.0" y="321.36" /><text font-family="sans-serif" font-size="14" text-anchor="middle" x="337.4" y="335.36">408</text><line stroke="black" stroke-width="1" x1="304.4" x2="326.4" y1="329.2" y2="329.2" /><line stroke="black" stroke-width="1" x1="282.4" x2="304.4" y1="350.2" y2="329.2" /><line stroke="black" stroke-width="1" x1="260.4" x2="282.4" y1="350.2" y2="350.2" /><use transform="rotate(180.0,259.4,350.2)" x="259.4" y="350.2" ns1:href="#simple-arrow" /><line stroke="black" stroke-width="5" x1="238.4" x2="260.4" y1="350.2" y2="350.2" /><line stroke="black" stroke-width="5" x1="216.4" x2="238.4" y1="350.2" y2="350.2" /><rect fill="white" height="16.31" stroke="white" width="30.8" x="212.0" y="342.36" /><text font-family="sans-serif" font-size="14" text-anchor="middle" x="227.4" y="356.36">408</text><line stroke="black" stroke-width="1" x1="194.4" x2="216.4" y1="350.2" y2="350.2" /><line stroke="black" stroke-width="1" x1="166.9" x2="194.4" y1="371.2" y2="350.2" /><line stroke="black" stroke-width="1" x1="139.4" x2="166.9" y1="371.2" y2="371.2" /><use transform="rotate(180.0,138.4,371.2)" x="138.4" y="371.2" ns1:href="#simple-arrow" /><line stroke="black" stroke-width="1" x1="104.3" x2="91.3" y1="57.4" y2="57.4" /><line stroke="black" stroke-width="1" x1="97.8" x2="97.8" y1="196" y2="57.4" /><use transform="rotate(90.0,97.8,197.0)" x="97.8" y="197.0" ns1:href="#simple-arrow" /><rect fill="white" height="16.31" stroke="white" width="46.2" x="74.7" y="118.86" /><text font-family="sans-serif" font-size="14" text-anchor="middle" x="97.8" y="132.86">64*T1</text><line stroke="white" stroke-width="1" x1="74.4" x2="35.4" y1="193.55" y2="193.55" /><rect fill="white" height="16.31" stroke="white" width="77.0" x="16.4" y="185.71" /><text font-family="sans-serif" font-size="14" text-anchor="middle" x="54.9" y="199.71">(timeout)</text></g></defs><use transform="scale(0.9,0.9)" x="0" y="0" ns1:href="#whole-drawing" /></svg>