<?xml version="1.0" encoding="UTF-8" standalone="no"?>
<svg id="commit" width="20px" height="20px" viewBox="0 0 20 20" version="1.1" xmlns="http://www.w3.org/2000/svg" xmlns:xlink="http://www.w3.org/1999/xlink">
  <defs></defs>
  <g>
    <circle fill="#333333" cx="10" cy="10" r="10"></circle>
    <path d="M4.66510667,17.2491069 C6.15798603,18.3496128 8.00303994,19 10,19 C12.0720369,19 13.9805309,18.2997902 15.5017662,17.1230865 L15.5017662,17.1230865 L13.3542494,14.9755697 C12.3967232,15.6223475 11.2424644,16 10,16 C8.83336828,16 7.74450357,15.66704 6.82324968,15.0909639 L4.66510667,17.2491069 Z M3.19526863,15.8905178 C1.82757329,14.3119362 1,12.2526132 1,10 C1,7.92796314 1.70020976,6.01946913 2.87691345,4.49823379 L5.02443028,6.64575062 C4.3776525,7.60327676 4,8.75753562 4,10 C4,11.4239837 4.49606035,12.7321063 5.32479992,13.7609865 L3.19526863,15.8905178 Z M17.2491069,4.66510667 C18.3496128,6.15798603 19,8.00303994 19,10 C19,12.1779129 18.226404,14.1751426 16.939004,15.7318972 L16.939004,15.7318972 L14.803298,13.5961913 C15.5547954,12.594052 16,11.3490176 16,10 C16,8.83336828 15.66704,7.74450357 15.0909639,6.82324968 L17.2491069,4.66510667 Z M15.8905178,3.19526863 C14.3119362,1.82757329 12.2526132,1 10,1 C7.82208712,1 5.82485737,1.773596 4.26810276,3.06099598 L6.40380875,5.19670197 C7.40594802,4.44520464 8.65098242,4 10,4 C11.4239837,4 12.7321063,4.49606035 13.7609865,5.32479992 L15.8905178,3.19526863 Z"></path>
  </g>
</svg>
