<?xml version="1.0" encoding="UTF-8" standalone="no"?>
<svg id="commit" width="20px" height="20px" viewBox="0 0 20 20" version="1.1" xmlns="http://www.w3.org/2000/svg" xmlns:xlink="http://www.w3.org/1999/xlink">
  <defs></defs>
  <g stroke="none" stroke-width="1" fill-rule="evenodd">
    <circle fill="#222222" cx="10" cy="10" r="10"></circle>
    <path d="M10,19 C14.9705627,19 19,14.9705627 19,10 C19,5.02943725 14.9705627,1 10,1 C5.02943725,1 1,5.02943725 1,10 C1,14.9705627 5.02943725,19 10,19 Z M14.5714286,9.14285714 C14.2499984,9.14285714 13.9598227,9.22321348 13.7008929,9.38392857 C13.441963,9.54464366 13.2366079,9.75446299 13.0848214,10.0133929 C13.0133925,10.0044642 12.9375004,10 12.8571429,10 C11.9553526,9.98214277 11.1383965,9.6919671 10.40625,9.12946429 C9.67410348,8.56696147 9.14732304,7.86161138 8.82589286,7.01339286 C9.01339379,6.85267777 9.16071375,6.6607154 9.26785714,6.4375 C9.37500054,6.2142846 9.42857143,5.97321558 9.42857143,5.71428571 C9.41964281,5.23214045 9.25223377,4.82812663 8.92633929,4.50223214 C8.6004448,4.17633766 8.19643098,4.00892862 7.71428571,4 C7.23214045,4.00892862 6.82812663,4.17633766 6.50223214,4.50223214 C6.17633766,4.82812663 6.00892862,5.23214045 6,5.71428571 C6,6.03571589 6.07812422,6.32365944 6.234375,6.578125 C6.39062578,6.83259056 6.59821299,7.03571353 6.85714286,7.1875 L6.85714286,12.8125 C6.59821299,12.9642865 6.39062578,13.1674094 6.234375,13.421875 C6.07812422,13.6763406 6,13.9642841 6,14.2857143 C6.00892862,14.7678596 6.17633766,15.1718734 6.50223214,15.4977679 C6.82812663,15.8236623 7.23214045,15.9910714 7.71428571,16 C8.19643098,15.9910714 8.6004448,15.8236623 8.92633929,15.4977679 C9.25223377,15.1718734 9.41964281,14.7678596 9.42857143,14.2857143 C9.42857143,13.9642841 9.35044721,13.6763406 9.19419643,13.421875 C9.03794565,13.1674094 8.83035844,12.9642865 8.57142857,12.8125 L8.57142857,9.71875 C9.14286,10.3258959 9.79687132,10.8080339 10.5334821,11.1651786 C11.270093,11.5223232 12.0446388,11.7053571 12.8571429,11.7142857 L13.0848214,11.7008929 C13.2366079,11.9687513 13.441963,12.1808028 13.7008929,12.3370536 C13.9598227,12.4933044 14.2499984,12.5714286 14.5714286,12.5714286 C15.0535738,12.5625 15.4575877,12.3950909 15.7834821,12.0691964 C16.1093766,11.7433019 16.2767857,11.3392881 16.2857143,10.8571429 C16.2767857,10.3749976 16.1093766,9.97098377 15.7834821,9.64508929 C15.4575877,9.3191948 15.0535738,9.15178576 14.5714286,9.14285714 Z M7.71428571,15.1428571 C7.47321308,15.1339285 7.27232223,15.0491079 7.11160714,14.8883929 C6.95089205,14.7276778 6.87053571,14.5267869 6.87053571,14.2857143 C6.87053571,14.0446417 6.95089205,13.8437508 7.11160714,13.6830357 C7.27232223,13.5223206 7.47321308,13.4419643 7.71428571,13.4419643 C7.95535835,13.4419643 8.1562492,13.5223206 8.31696429,13.6830357 C8.47767938,13.8437508 8.55803571,14.0446417 8.55803571,14.2857143 C8.55803571,14.5267869 8.47767938,14.7276778 8.31696429,14.8883929 C8.1562492,15.0491079 7.95535835,15.1339285 7.71428571,15.1428571 Z M7.71428571,6.57142857 C7.47321308,6.56249996 7.27232223,6.47767938 7.11160714,6.31696429 C6.95089205,6.1562492 6.87053571,5.95535835 6.87053571,5.71428571 C6.87053571,5.47321308 6.95089205,5.27232223 7.11160714,5.11160714 C7.27232223,4.95089205 7.47321308,4.87053571 7.71428571,4.87053571 C7.95535835,4.87053571 8.1562492,4.95089205 8.31696429,5.11160714 C8.47767938,5.27232223 8.55803571,5.47321308 8.55803571,5.71428571 C8.55803571,5.95535835 8.47767938,6.1562492 8.31696429,6.31696429 C8.1562492,6.47767938 7.95535835,6.56249996 7.71428571,6.57142857 Z M14.5714286,11.7142857 C14.3303559,11.7053571 14.1294651,11.6205365 13.96875,11.4598214 C13.8080349,11.2991063 13.7276786,11.0982155 13.7276786,10.8571429 C13.7276786,10.6160702 13.8080349,10.4151794 13.96875,10.2544643 C14.1294651,10.0937492 14.3303559,10.0133929 14.5714286,10.0133929 C14.8125012,10.0133929 15.0133921,10.0937492 15.1741071,10.2544643 C15.3348222,10.4151794 15.4151786,10.6160702 15.4151786,10.8571429 C15.4151786,11.0982155 15.3348222,11.2991063 15.1741071,11.4598214 C15.0133921,11.6205365 14.8125012,11.7053571 14.5714286,11.7142857 Z"></path>
  </g>
</svg>
