<svg xmlns="http://www.w3.org/2000/svg" height="16px" id="commit" version="1.1" viewBox="0 0 14 16" width="14px">
  <defs />
  <g>
    <path d="M9.64322917,6.01785714 C9.60677065,6.01785714 9.55512186,6.01488098 9.48828125,6.00892857 C9.42144064,6.00297616 9.36979185,6 9.33333333,6 C8.16666083,6 8.06684544,6.61607527 7.03385417,5.84821429 C6.00086289,5.0803533 6.27170352,6.13691036 5.84635417,5.01785714 C6.3932319,4.56547393 5.66666667,3.98809875 5.66666667,3.28571429 C5.66666667,2.65475875 5.8033877,1.11607367 5.34765625,0.669642866 C4.8919248,0.223212062 3.97743378,1.11022302e-16 3.33333333,0 C2.68923289,1.11022302e-16 1.1393252,0.223212054 0.68359375,0.669642857 C0.227862305,1.11607366 0,1.65475875 0,2.28571429 C0,2.70238304 0.106335742,4.08333161 0.319010417,4.42857143 C0.531685091,4.77381125 0.814234349,5.04761804 1.16666667,5.25 L1.16666667,10.7321429 C0.814234349,10.9345248 0.531685091,11.2083316 0.319010417,11.5535714 C0.106335742,11.8988113 0,12.2797598 0,12.6964286 C0,13.3273841 0.227862305,14.8660692 0.68359375,15.3125 C1.1393252,15.7589308 1.68923289,15.9821429 2.33333333,15.9821429 C2.97743378,15.9821429 4.52734147,15.7589308 4.98307292,15.3125 C5.43880436,14.8660692 5.66666667,13.3273841 5.66666667,12.6964286 C5.66666667,12.2797598 5.56033092,11.8988113 5.34765625,11.5535714 C5.13498158,11.2083316 4.85243232,10.9345248 4.5,10.7321429 C4.5,10.7321429 6.93055021,10.7321424 8,10.7321424 C8.14583406,10.7321424 9.58246497,11.279762 9.64322917,11.2678571 C10.105037,12.0416705 10.7795095,11.4285714 11.6666667,11.4285714 C12.3107671,11.4285714 12.8606748,11.2053594 13.3164062,10.7589286 C13.7721377,10.3124978 14,8.77381268 14,8.14285714 C14,7.51190161 13.7721377,5.97321652 13.3164062,5.52678571 C12.8606748,5.08035491 12.3107671,4.85714286 11.6666667,4.85714286 C10.7673566,4.85714286 10.0928842,5.24404375 9.64322917,6.01785714 Z" fill="#333333" />
    <path d="M9.265625,7.01562501 C9.23437484,7.01562501 9.19010445,7.01302087 9.1328125,7.00781251 C9.07552055,7.00260416 9.03125016,7.00000001 9,7.00000001 C7.999995,7.00000001 8,7 7,7 C6,7 4.66146016,5.49479656 4.296875,4.515625 C4.76562734,4.11978969 5,3.61458641 5,3 C5,2.44791391 4.80468945,1.97656445 4.4140625,1.5859375 C4.02343555,1.19531055 3.55208609,1 3,1 C2.44791391,1 1.97656445,1.19531055 1.5859375,1.5859375 C1.19531055,1.97656445 1,2.44791391 1,3 C1,3.36458516 1.09114492,3.69791516 1.2734375,4 C1.45573008,4.30208484 1.69791516,4.54166578 2,4.71875 L2,11.265625 C1.69791516,11.4427092 1.45573008,11.6822902 1.2734375,11.984375 C1.09114492,12.2864598 1,12.6197898 1,12.984375 C1,13.5364611 1.19531055,14.0078105 1.5859375,14.3984375 C1.97656445,14.7890645 2.44791391,14.984375 3,14.984375 C3.55208609,14.984375 4.02343555,14.7890645 4.4140625,14.3984375 C4.80468945,14.0078105 5,13.5364611 5,12.984375 C5,12.6197898 4.90885508,12.2864598 4.7265625,11.984375 C4.54426992,11.6822902 4.30208484,11.4427092 4,11.265625 L4,7.671875 C4.67708672,8.39062859 6,8.984375 8,8.984375 C10,8.984375 8.08332875,9.00000001 9,9.00000001 C9.12500062,9.00000001 9.21354141,8.99479173 9.265625,8.98437501 C9.66146031,9.66146173 10.2395795,10 11,10 C11.5520861,10 12.0234355,9.80468947 12.4140625,9.41406251 C12.8046895,9.02343556 13,8.55208611 13,8.00000001 C13,7.44791392 12.8046895,6.97656447 12.4140625,6.58593751 C12.0234355,6.19531056 11.5520861,6.00000001 11,6.00000001 C10.2291628,6.00000001 9.65104359,6.3385383 9.265625,7.01562501 Z M3.703125,13.703125 C3.50520734,13.9010427 3.27083469,14 3,14 C2.72916531,14 2.49479266,13.9010427 2.296875,13.703125 C2.09895734,13.5052073 2,13.2708347 2,13 C2,12.7291653 2.09895734,12.4947927 2.296875,12.296875 C2.49479266,12.0989573 2.72916531,12 3,12 C3.27083469,12 3.50520734,12.0989573 3.703125,12.296875 C3.90104266,12.4947927 4,12.7291653 4,13 C4,13.2708347 3.90104266,13.5052073 3.703125,13.703125 Z M3.703125,3.703125 C3.50520734,3.90104266 3.27083469,4 3,4 C2.72916531,4 2.49479266,3.90104266 2.296875,3.703125 C2.09895734,3.50520734 2,3.27083469 2,3 C2,2.72916531 2.09895734,2.49479266 2.296875,2.296875 C2.49479266,2.09895734 2.72916531,2 3,2 C3.27083469,2 3.50520734,2.09895734 3.703125,2.296875 C3.90104266,2.49479266 4,2.72916531 4,3 C4,3.27083469 3.90104266,3.50520734 3.703125,3.703125 Z M11,9 C10.7291653,9 10.4947927,8.90104266 10.296875,8.703125 C10.0989573,8.50520734 10,8.27083469 10,8 C10,7.72916531 10.0989573,7.49479266 10.296875,7.296875 C10.4947927,7.09895734 10.7291653,7 11,7 C11.2708347,7 11.5052073,7.09895734 11.703125,7.296875 C11.9010427,7.49479266 12,7.72916531 12,8 C12,8.27083469 11.9010427,8.50520734 11.703125,8.703125 C11.5052073,8.90104266 11.2708347,9 11,9 Z" />
  </g>
</svg>
