<svg xmlns="http://www.w3.org/2000/svg" xmlns:ns1="http://www.w3.org/1999/xlink" baseProfile="tiny" height="100%" preserveAspectRatio="xMidYMid meet" version="1.2" viewBox="(0, 0, 1043.6, 278.1)" width="100%"><defs><g id="whole-drawing"><text font-family="sans-serif" font-size="16.0" text-anchor="middle" x="70.4" y="25.3">0</text><text font-family="sans-serif" font-size="16.0" text-anchor="middle" x="101.2" y="25.3">1</text><text font-family="sans-serif" font-size="16.0" text-anchor="middle" x="132.0" y="25.3">2</text><text font-family="sans-serif" font-size="16.0" text-anchor="middle" x="162.8" y="25.3">3</text><text font-family="sans-serif" font-size="16.0" text-anchor="middle" x="193.6" y="25.3">4</text><text font-family="sans-serif" font-size="16.0" text-anchor="middle" x="224.4" y="25.3">5</text><text font-family="sans-serif" font-size="16.0" text-anchor="middle" x="255.2" y="25.3">6</text><text font-family="sans-serif" font-size="16.0" text-anchor="middle" x="286.0" y="25.3">7</text><text font-family="sans-serif" font-size="16.0" text-anchor="middle" x="316.8" y="25.3">8</text><text font-family="sans-serif" font-size="16.0" text-anchor="middle" x="347.6" y="25.3">9</text><text font-family="sans-serif" font-size="16.0" text-anchor="middle" x="378.4" y="25.3">10</text><text font-family="sans-serif" font-size="16.0" text-anchor="middle" x="409.2" y="25.3">11</text><text font-family="sans-serif" font-size="16.0" text-anchor="middle" x="440.0" y="25.3">12</text><text font-family="sans-serif" font-size="16.0" text-anchor="middle" x="470.8" y="25.3">13</text><text font-family="sans-serif" font-size="16.0" text-anchor="middle" x="501.6" y="25.3">14</text><text font-family="sans-serif" font-size="16.0" text-anchor="middle" x="532.4" y="25.3">15</text><text font-family="sans-serif" font-size="16.0" text-anchor="middle" x="563.2" y="25.3">16</text><text font-family="sans-serif" font-size="16.0" text-anchor="middle" x="594.0" y="25.3">17</text><text font-family="sans-serif" font-size="16.0" text-anchor="middle" x="624.8" y="25.3">18</text><text font-family="sans-serif" font-size="16.0" text-anchor="middle" x="655.6" y="25.3">19</text><text font-family="sans-serif" font-size="16.0" text-anchor="middle" x="686.4" y="25.3">20</text><text font-family="sans-serif" font-size="16.0" text-anchor="middle" x="717.2" y="25.3">21</text><text font-family="sans-serif" font-size="16.0" text-anchor="middle" x="748.0" y="25.3">22</text><text font-family="sans-serif" font-size="16.0" text-anchor="middle" x="778.8" y="25.3">23</text><text font-family="sans-serif" font-size="16.0" text-anchor="middle" x="809.6" y="25.3">24</text><text font-family="sans-serif" font-size="16.0" text-anchor="middle" x="840.4" y="25.3">25</text><text font-family="sans-serif" font-size="16.0" text-anchor="middle" x="871.2" y="25.3">26</text><text font-family="sans-serif" font-size="16.0" text-anchor="middle" x="902.0" y="25.3">27</text><text font-family="sans-serif" font-size="16.0" text-anchor="middle" x="932.8" y="25.3">28</text><text font-family="sans-serif" font-size="16.0" text-anchor="middle" x="963.6" y="25.3">29</text><text font-family="sans-serif" font-size="16.0" text-anchor="middle" x="994.4" y="25.3">30</text><text font-family="sans-serif" font-size="16.0" text-anchor="middle" x="1025.2" y="25.3">31</text><line stroke="black" stroke-width="1" x1="85.8" x2="85.8" y1="34.4" y2="37.4" /><line stroke="black" stroke-width="1" x1="116.6" x2="116.6" y1="34.4" y2="37.4" /><line stroke="black" stroke-width="1" x1="147.4" x2="147.4" y1="34.4" y2="37.4" /><line stroke="black" stroke-width="1" x1="178.2" x2="178.2" y1="34.4" y2="37.4" /><line stroke="black" stroke-width="1" x1="209.0" x2="209.0" y1="34.4" y2="37.4" /><line stroke="black" stroke-width="1" x1="239.8" x2="239.8" y1="34.4" y2="37.4" /><line stroke="black" stroke-width="1" x1="270.6" x2="270.6" y1="34.4" y2="37.4" /><line stroke="black" stroke-width="1" x1="301.4" x2="301.4" y1="32.4" y2="37.4" /><line stroke="black" stroke-width="1" x1="332.2" x2="332.2" y1="34.4" y2="37.4" /><line stroke="black" stroke-width="1" x1="363.0" x2="363.0" y1="34.4" y2="37.4" /><line stroke="black" stroke-width="1" x1="393.8" x2="393.8" y1="34.4" y2="37.4" /><line stroke="black" stroke-width="1" x1="424.6" x2="424.6" y1="34.4" y2="37.4" /><line stroke="black" stroke-width="1" x1="455.4" x2="455.4" y1="34.4" y2="37.4" /><line stroke="black" stroke-width="1" x1="486.2" x2="486.2" y1="34.4" y2="37.4" /><line stroke="black" stroke-width="1" x1="517.0" x2="517.0" y1="34.4" y2="37.4" /><line stroke="black" stroke-width="1" x1="547.8" x2="547.8" y1="32.4" y2="37.4" /><line stroke="black" stroke-width="1" x1="578.6" x2="578.6" y1="34.4" y2="37.4" /><line stroke="black" stroke-width="1" x1="609.4" x2="609.4" y1="34.4" y2="37.4" /><line stroke="black" stroke-width="1" x1="640.2" x2="640.2" y1="34.4" y2="37.4" /><line stroke="black" stroke-width="1" x1="671.0" x2="671.0" y1="34.4" y2="37.4" /><line stroke="black" stroke-width="1" x1="701.8" x2="701.8" y1="34.4" y2="37.4" /><line stroke="black" stroke-width="1" x1="732.6" x2="732.6" y1="34.4" y2="37.4" /><line stroke="black" stroke-width="1" x1="763.4" x2="763.4" y1="34.4" y2="37.4" /><line stroke="black" stroke-width="1" x1="794.2" x2="794.2" y1="32.4" y2="37.4" /><line stroke="black" stroke-width="1" x1="825.0" x2="825.0" y1="34.4" y2="37.4" /><line stroke="black" stroke-width="1" x1="855.8" x2="855.8" y1="34.4" y2="37.4" /><line stroke="black" stroke-width="1" x1="886.6" x2="886.6" y1="34.4" y2="37.4" /><line stroke="black" stroke-width="1" x1="917.4" x2="917.4" y1="34.4" y2="37.4" /><line stroke="black" stroke-width="1" x1="948.2" x2="948.2" y1="34.4" y2="37.4" /><line stroke="black" stroke-width="1" x1="979.0" x2="979.0" y1="34.4" y2="37.4" /><line stroke="black" stroke-width="1" x1="1009.8" x2="1009.8" y1="34.4" y2="37.4" /><line stroke="black" stroke-width="1" x1="55.0" x2="1040.6" y1="37.4" y2="37.4" /><text font-family="sans-serif" font-size="20" text-anchor="middle" x="301.4" y="60.7">Source Port</text><line stroke="black" stroke-width="1" x1="547.8" x2="547.8" y1="37.4" y2="71.5" /><text font-family="sans-serif" font-size="20" text-anchor="middle" x="794.2" y="60.7">Destination Port</text><line stroke="black" stroke-width="1" x1="1040.6" x2="1040.6" y1="37.4" y2="71.5" /><line stroke="black" stroke-width="1" x1="85.8" x2="85.8" y1="68.5" y2="71.5" /><line stroke="black" stroke-width="1" x1="116.6" x2="116.6" y1="68.5" y2="71.5" /><line stroke="black" stroke-width="1" x1="147.4" x2="147.4" y1="68.5" y2="71.5" /><line stroke="black" stroke-width="1" x1="178.2" x2="178.2" y1="68.5" y2="71.5" /><line stroke="black" stroke-width="1" x1="209.0" x2="209.0" y1="68.5" y2="71.5" /><line stroke="black" stroke-width="1" x1="239.8" x2="239.8" y1="68.5" y2="71.5" /><line stroke="black" stroke-width="1" x1="270.6" x2="270.6" y1="68.5" y2="71.5" /><line stroke="black" stroke-width="1" x1="301.4" x2="301.4" y1="66.5" y2="71.5" /><line stroke="black" stroke-width="1" x1="332.2" x2="332.2" y1="68.5" y2="71.5" /><line stroke="black" stroke-width="1" x1="363.0" x2="363.0" y1="68.5" y2="71.5" /><line stroke="black" stroke-width="1" x1="393.8" x2="393.8" y1="68.5" y2="71.5" /><line stroke="black" stroke-width="1" x1="424.6" x2="424.6" y1="68.5" y2="71.5" /><line stroke="black" stroke-width="1" x1="455.4" x2="455.4" y1="68.5" y2="71.5" /><line stroke="black" stroke-width="1" x1="486.2" x2="486.2" y1="68.5" y2="71.5" /><line stroke="black" stroke-width="1" x1="517.0" x2="517.0" y1="68.5" y2="71.5" /><line stroke="black" stroke-width="1" x1="547.8" x2="547.8" y1="66.5" y2="71.5" /><line stroke="black" stroke-width="1" x1="578.6" x2="578.6" y1="68.5" y2="71.5" /><line stroke="black" stroke-width="1" x1="609.4" x2="609.4" y1="68.5" y2="71.5" /><line stroke="black" stroke-width="1" x1="640.2" x2="640.2" y1="68.5" y2="71.5" /><line stroke="black" stroke-width="1" x1="671.0" x2="671.0" y1="68.5" y2="71.5" /><line stroke="black" stroke-width="1" x1="701.8" x2="701.8" y1="68.5" y2="71.5" /><line stroke="black" stroke-width="1" x1="732.6" x2="732.6" y1="68.5" y2="71.5" /><line stroke="black" stroke-width="1" x1="763.4" x2="763.4" y1="68.5" y2="71.5" /><line stroke="black" stroke-width="1" x1="794.2" x2="794.2" y1="66.5" y2="71.5" /><line stroke="black" stroke-width="1" x1="825.0" x2="825.0" y1="68.5" y2="71.5" /><line stroke="black" stroke-width="1" x1="855.8" x2="855.8" y1="68.5" y2="71.5" /><line stroke="black" stroke-width="1" x1="886.6" x2="886.6" y1="68.5" y2="71.5" /><line stroke="black" stroke-width="1" x1="917.4" x2="917.4" y1="68.5" y2="71.5" /><line stroke="black" stroke-width="1" x1="948.2" x2="948.2" y1="68.5" y2="71.5" /><line stroke="black" stroke-width="1" x1="979.0" x2="979.0" y1="68.5" y2="71.5" /><line stroke="black" stroke-width="1" x1="1009.8" x2="1009.8" y1="68.5" y2="71.5" /><line stroke="black" stroke-width="1" x1="55.0" x2="1040.6" y1="71.5" y2="71.5" /><text font-family="sans-serif" font-size="16.0" text-anchor="end" x="39.0" y="59.4">0</text><text font-family="sans-serif" font-size="20" text-anchor="middle" x="547.8" y="94.8">Sequence Number</text><line stroke="black" stroke-width="1" x1="1040.6" x2="1040.6" y1="71.5" y2="105.6" /><line stroke="black" stroke-width="1" x1="85.8" x2="85.8" y1="102.6" y2="105.6" /><line stroke="black" stroke-width="1" x1="116.6" x2="116.6" y1="102.6" y2="105.6" /><line stroke="black" stroke-width="1" x1="147.4" x2="147.4" y1="102.6" y2="105.6" /><line stroke="black" stroke-width="1" x1="178.2" x2="178.2" y1="102.6" y2="105.6" /><line stroke="black" stroke-width="1" x1="209.0" x2="209.0" y1="102.6" y2="105.6" /><line stroke="black" stroke-width="1" x1="239.8" x2="239.8" y1="102.6" y2="105.6" /><line stroke="black" stroke-width="1" x1="270.6" x2="270.6" y1="102.6" y2="105.6" /><line stroke="black" stroke-width="1" x1="301.4" x2="301.4" y1="100.6" y2="105.6" /><line stroke="black" stroke-width="1" x1="332.2" x2="332.2" y1="102.6" y2="105.6" /><line stroke="black" stroke-width="1" x1="363.0" x2="363.0" y1="102.6" y2="105.6" /><line stroke="black" stroke-width="1" x1="393.8" x2="393.8" y1="102.6" y2="105.6" /><line stroke="black" stroke-width="1" x1="424.6" x2="424.6" y1="102.6" y2="105.6" /><line stroke="black" stroke-width="1" x1="455.4" x2="455.4" y1="102.6" y2="105.6" /><line stroke="black" stroke-width="1" x1="486.2" x2="486.2" y1="102.6" y2="105.6" /><line stroke="black" stroke-width="1" x1="517.0" x2="517.0" y1="102.6" y2="105.6" /><line stroke="black" stroke-width="1" x1="547.8" x2="547.8" y1="100.6" y2="105.6" /><line stroke="black" stroke-width="1" x1="578.6" x2="578.6" y1="102.6" y2="105.6" /><line stroke="black" stroke-width="1" x1="609.4" x2="609.4" y1="102.6" y2="105.6" /><line stroke="black" stroke-width="1" x1="640.2" x2="640.2" y1="102.6" y2="105.6" /><line stroke="black" stroke-width="1" x1="671.0" x2="671.0" y1="102.6" y2="105.6" /><line stroke="black" stroke-width="1" x1="701.8" x2="701.8" y1="102.6" y2="105.6" /><line stroke="black" stroke-width="1" x1="732.6" x2="732.6" y1="102.6" y2="105.6" /><line stroke="black" stroke-width="1" x1="763.4" x2="763.4" y1="102.6" y2="105.6" /><line stroke="black" stroke-width="1" x1="794.2" x2="794.2" y1="100.6" y2="105.6" /><line stroke="black" stroke-width="1" x1="825.0" x2="825.0" y1="102.6" y2="105.6" /><line stroke="black" stroke-width="1" x1="855.8" x2="855.8" y1="102.6" y2="105.6" /><line stroke="black" stroke-width="1" x1="886.6" x2="886.6" y1="102.6" y2="105.6" /><line stroke="black" stroke-width="1" x1="917.4" x2="917.4" y1="102.6" y2="105.6" /><line stroke="black" stroke-width="1" x1="948.2" x2="948.2" y1="102.6" y2="105.6" /><line stroke="black" stroke-width="1" x1="979.0" x2="979.0" y1="102.6" y2="105.6" /><line stroke="black" stroke-width="1" x1="1009.8" x2="1009.8" y1="102.6" y2="105.6" /><line stroke="black" stroke-width="1" x1="55.0" x2="1040.6" y1="105.6" y2="105.6" /><text font-family="sans-serif" font-size="16.0" text-anchor="end" x="39.0" y="93.5">8</text><text font-family="sans-serif" font-size="20" text-anchor="middle" x="547.8" y="128.9">Acknowledgement Number</text><line stroke="black" stroke-width="1" x1="1040.6" x2="1040.6" y1="105.6" y2="139.7" /><line stroke="black" stroke-width="1" x1="85.8" x2="85.8" y1="136.7" y2="139.7" /><line stroke="black" stroke-width="1" x1="116.6" x2="116.6" y1="136.7" y2="139.7" /><line stroke="black" stroke-width="1" x1="147.4" x2="147.4" y1="136.7" y2="139.7" /><line stroke="black" stroke-width="1" x1="178.2" x2="178.2" y1="136.7" y2="139.7" /><line stroke="black" stroke-width="1" x1="209.0" x2="209.0" y1="136.7" y2="139.7" /><line stroke="black" stroke-width="1" x1="239.8" x2="239.8" y1="136.7" y2="139.7" /><line stroke="black" stroke-width="1" x1="270.6" x2="270.6" y1="136.7" y2="139.7" /><line stroke="black" stroke-width="1" x1="301.4" x2="301.4" y1="134.7" y2="139.7" /><line stroke="black" stroke-width="1" x1="332.2" x2="332.2" y1="136.7" y2="139.7" /><line stroke="black" stroke-width="1" x1="363.0" x2="363.0" y1="136.7" y2="139.7" /><line stroke="black" stroke-width="1" x1="393.8" x2="393.8" y1="136.7" y2="139.7" /><line stroke="black" stroke-width="1" x1="424.6" x2="424.6" y1="136.7" y2="139.7" /><line stroke="black" stroke-width="1" x1="455.4" x2="455.4" y1="136.7" y2="139.7" /><line stroke="black" stroke-width="1" x1="486.2" x2="486.2" y1="136.7" y2="139.7" /><line stroke="black" stroke-width="1" x1="517.0" x2="517.0" y1="136.7" y2="139.7" /><line stroke="black" stroke-width="1" x1="547.8" x2="547.8" y1="134.7" y2="139.7" /><line stroke="black" stroke-width="1" x1="578.6" x2="578.6" y1="136.7" y2="139.7" /><line stroke="black" stroke-width="1" x1="609.4" x2="609.4" y1="136.7" y2="139.7" /><line stroke="black" stroke-width="1" x1="640.2" x2="640.2" y1="136.7" y2="139.7" /><line stroke="black" stroke-width="1" x1="671.0" x2="671.0" y1="136.7" y2="139.7" /><line stroke="black" stroke-width="1" x1="701.8" x2="701.8" y1="136.7" y2="139.7" /><line stroke="black" stroke-width="1" x1="732.6" x2="732.6" y1="136.7" y2="139.7" /><line stroke="black" stroke-width="1" x1="763.4" x2="763.4" y1="136.7" y2="139.7" /><line stroke="black" stroke-width="1" x1="794.2" x2="794.2" y1="134.7" y2="139.7" /><line stroke="black" stroke-width="1" x1="825.0" x2="825.0" y1="136.7" y2="139.7" /><line stroke="black" stroke-width="1" x1="855.8" x2="855.8" y1="136.7" y2="139.7" /><line stroke="black" stroke-width="1" x1="886.6" x2="886.6" y1="136.7" y2="139.7" /><line stroke="black" stroke-width="1" x1="917.4" x2="917.4" y1="136.7" y2="139.7" /><line stroke="black" stroke-width="1" x1="948.2" x2="948.2" y1="136.7" y2="139.7" /><line stroke="black" stroke-width="1" x1="979.0" x2="979.0" y1="136.7" y2="139.7" /><line stroke="black" stroke-width="1" x1="1009.8" x2="1009.8" y1="136.7" y2="139.7" /><line stroke="black" stroke-width="1" x1="55.0" x2="1040.6" y1="139.7" y2="139.7" /><text font-family="sans-serif" font-size="16.0" text-anchor="end" x="39.0" y="127.6">16</text><text font-family="sans-serif" font-size="20" text-anchor="middle" x="116.6" y="163.0">Data Offset</text><line stroke="black" stroke-width="1" x1="178.2" x2="178.2" y1="139.7" y2="173.8" /><text font-family="sans-serif" font-size="20" text-anchor="middle" x="270.6" y="163.0">Reserved</text><line stroke="black" stroke-width="1" x1="363.0" x2="363.0" y1="139.7" y2="173.8" /><text font-family="sans-serif" font-size="14" text-anchor="middle" x="378.4" y="163.0">Urg</text><line stroke="black" stroke-width="1" x1="393.8" x2="393.8" y1="139.7" y2="173.8" /><text font-family="sans-serif" font-size="14" text-anchor="middle" x="409.2" y="163.0">Ack</text><line stroke="black" stroke-width="1" x1="424.6" x2="424.6" y1="139.7" y2="173.8" /><text font-family="sans-serif" font-size="14" text-anchor="middle" x="440.0" y="163.0">Psh</text><line stroke="black" stroke-width="1" x1="455.4" x2="455.4" y1="139.7" y2="173.8" /><text font-family="sans-serif" font-size="14" text-anchor="middle" x="470.8" y="163.0">Rst</text><line stroke="black" stroke-width="1" x1="486.2" x2="486.2" y1="139.7" y2="173.8" /><text font-family="sans-serif" font-size="14" text-anchor="middle" x="501.6" y="163.0">Syn</text><line stroke="black" stroke-width="1" x1="517.0" x2="517.0" y1="139.7" y2="173.8" /><text font-family="sans-serif" font-size="14" text-anchor="middle" x="532.4" y="163.0">Fin</text><line stroke="black" stroke-width="1" x1="547.8" x2="547.8" y1="139.7" y2="173.8" /><text font-family="sans-serif" font-size="20" text-anchor="middle" x="794.2" y="163.0">Window</text><line stroke="black" stroke-width="1" x1="1040.6" x2="1040.6" y1="139.7" y2="173.8" /><line stroke="black" stroke-width="1" x1="85.8" x2="85.8" y1="170.8" y2="173.8" /><line stroke="black" stroke-width="1" x1="116.6" x2="116.6" y1="170.8" y2="173.8" /><line stroke="black" stroke-width="1" x1="147.4" x2="147.4" y1="170.8" y2="173.8" /><line stroke="black" stroke-width="1" x1="178.2" x2="178.2" y1="170.8" y2="173.8" /><line stroke="black" stroke-width="1" x1="209.0" x2="209.0" y1="170.8" y2="173.8" /><line stroke="black" stroke-width="1" x1="239.8" x2="239.8" y1="170.8" y2="173.8" /><line stroke="black" stroke-width="1" x1="270.6" x2="270.6" y1="170.8" y2="173.8" /><line stroke="black" stroke-width="1" x1="301.4" x2="301.4" y1="168.8" y2="173.8" /><line stroke="black" stroke-width="1" x1="332.2" x2="332.2" y1="170.8" y2="173.8" /><line stroke="black" stroke-width="1" x1="363.0" x2="363.0" y1="170.8" y2="173.8" /><line stroke="black" stroke-width="1" x1="393.8" x2="393.8" y1="170.8" y2="173.8" /><line stroke="black" stroke-width="1" x1="424.6" x2="424.6" y1="170.8" y2="173.8" /><line stroke="black" stroke-width="1" x1="455.4" x2="455.4" y1="170.8" y2="173.8" /><line stroke="black" stroke-width="1" x1="486.2" x2="486.2" y1="170.8" y2="173.8" /><line stroke="black" stroke-width="1" x1="517.0" x2="517.0" y1="170.8" y2="173.8" /><line stroke="black" stroke-width="1" x1="547.8" x2="547.8" y1="168.8" y2="173.8" /><line stroke="black" stroke-width="1" x1="578.6" x2="578.6" y1="170.8" y2="173.8" /><line stroke="black" stroke-width="1" x1="609.4" x2="609.4" y1="170.8" y2="173.8" /><line stroke="black" stroke-width="1" x1="640.2" x2="640.2" y1="170.8" y2="173.8" /><line stroke="black" stroke-width="1" x1="671.0" x2="671.0" y1="170.8" y2="173.8" /><line stroke="black" stroke-width="1" x1="701.8" x2="701.8" y1="170.8" y2="173.8" /><line stroke="black" stroke-width="1" x1="732.6" x2="732.6" y1="170.8" y2="173.8" /><line stroke="black" stroke-width="1" x1="763.4" x2="763.4" y1="170.8" y2="173.8" /><line stroke="black" stroke-width="1" x1="794.2" x2="794.2" y1="168.8" y2="173.8" /><line stroke="black" stroke-width="1" x1="825.0" x2="825.0" y1="170.8" y2="173.8" /><line stroke="black" stroke-width="1" x1="855.8" x2="855.8" y1="170.8" y2="173.8" /><line stroke="black" stroke-width="1" x1="886.6" x2="886.6" y1="170.8" y2="173.8" /><line stroke="black" stroke-width="1" x1="917.4" x2="917.4" y1="170.8" y2="173.8" /><line stroke="black" stroke-width="1" x1="948.2" x2="948.2" y1="170.8" y2="173.8" /><line stroke="black" stroke-width="1" x1="979.0" x2="979.0" y1="170.8" y2="173.8" /><line stroke="black" stroke-width="1" x1="1009.8" x2="1009.8" y1="170.8" y2="173.8" /><line stroke="black" stroke-width="1" x1="55.0" x2="1040.6" y1="173.8" y2="173.8" /><text font-family="sans-serif" font-size="16.0" text-anchor="end" x="39.0" y="161.7">24</text><text font-family="sans-serif" font-size="20" text-anchor="middle" x="301.4" y="197.1">Checksum</text><line stroke="black" stroke-width="1" x1="547.8" x2="547.8" y1="173.8" y2="207.9" /><text font-family="sans-serif" font-size="20" text-anchor="middle" x="794.2" y="197.1">Urgent Pointer</text><line stroke="black" stroke-width="1" x1="1040.6" x2="1040.6" y1="173.8" y2="207.9" /><line stroke="black" stroke-width="1" x1="85.8" x2="85.8" y1="204.9" y2="207.9" /><line stroke="black" stroke-width="1" x1="116.6" x2="116.6" y1="204.9" y2="207.9" /><line stroke="black" stroke-width="1" x1="147.4" x2="147.4" y1="204.9" y2="207.9" /><line stroke="black" stroke-width="1" x1="178.2" x2="178.2" y1="204.9" y2="207.9" /><line stroke="black" stroke-width="1" x1="209.0" x2="209.0" y1="204.9" y2="207.9" /><line stroke="black" stroke-width="1" x1="239.8" x2="239.8" y1="204.9" y2="207.9" /><line stroke="black" stroke-width="1" x1="270.6" x2="270.6" y1="204.9" y2="207.9" /><line stroke="black" stroke-width="1" x1="301.4" x2="301.4" y1="202.9" y2="207.9" /><line stroke="black" stroke-width="1" x1="332.2" x2="332.2" y1="204.9" y2="207.9" /><line stroke="black" stroke-width="1" x1="363.0" x2="363.0" y1="204.9" y2="207.9" /><line stroke="black" stroke-width="1" x1="393.8" x2="393.8" y1="204.9" y2="207.9" /><line stroke="black" stroke-width="1" x1="424.6" x2="424.6" y1="204.9" y2="207.9" /><line stroke="black" stroke-width="1" x1="455.4" x2="455.4" y1="204.9" y2="207.9" /><line stroke="black" stroke-width="1" x1="486.2" x2="486.2" y1="204.9" y2="207.9" /><line stroke="black" stroke-width="1" x1="517.0" x2="517.0" y1="204.9" y2="207.9" /><line stroke="black" stroke-width="1" x1="547.8" x2="547.8" y1="202.9" y2="207.9" /><line stroke="black" stroke-width="1" x1="578.6" x2="578.6" y1="204.9" y2="207.9" /><line stroke="black" stroke-width="1" x1="609.4" x2="609.4" y1="204.9" y2="207.9" /><line stroke="black" stroke-width="1" x1="640.2" x2="640.2" y1="204.9" y2="207.9" /><line stroke="black" stroke-width="1" x1="671.0" x2="671.0" y1="204.9" y2="207.9" /><line stroke="black" stroke-width="1" x1="701.8" x2="701.8" y1="204.9" y2="207.9" /><line stroke="black" stroke-width="1" x1="732.6" x2="732.6" y1="204.9" y2="207.9" /><line stroke="black" stroke-width="1" x1="763.4" x2="763.4" y1="204.9" y2="207.9" /><line stroke="black" stroke-width="1" x1="794.2" x2="794.2" y1="202.9" y2="207.9" /><line stroke="black" stroke-width="1" x1="825.0" x2="825.0" y1="204.9" y2="207.9" /><line stroke="black" stroke-width="1" x1="855.8" x2="855.8" y1="204.9" y2="207.9" /><line stroke="black" stroke-width="1" x1="886.6" x2="886.6" y1="204.9" y2="207.9" /><line stroke="black" stroke-width="1" x1="917.4" x2="917.4" y1="204.9" y2="207.9" /><line stroke="black" stroke-width="1" x1="948.2" x2="948.2" y1="204.9" y2="207.9" /><line stroke="black" stroke-width="1" x1="979.0" x2="979.0" y1="204.9" y2="207.9" /><line stroke="black" stroke-width="1" x1="1009.8" x2="1009.8" y1="204.9" y2="207.9" /><line stroke="black" stroke-width="1" x1="55.0" x2="1040.6" y1="207.9" y2="207.9" /><text font-family="sans-serif" font-size="16.0" text-anchor="end" x="39.0" y="195.8">32</text><text font-family="sans-serif" font-size="20" text-anchor="middle" x="424.6" y="231.2">Options</text><line stroke="black" stroke-width="1" x1="794.2" x2="794.2" y1="207.9" y2="242.0" /><text font-family="sans-serif" font-size="20" text-anchor="middle" x="917.4" y="231.2">Padding</text><line stroke="black" stroke-width="1" x1="1040.6" x2="1040.6" y1="207.9" y2="242.0" /><line stroke="black" stroke-width="1" x1="85.8" x2="85.8" y1="239.0" y2="242.0" /><line stroke="black" stroke-width="1" x1="116.6" x2="116.6" y1="239.0" y2="242.0" /><line stroke="black" stroke-width="1" x1="147.4" x2="147.4" y1="239.0" y2="242.0" /><line stroke="black" stroke-width="1" x1="178.2" x2="178.2" y1="239.0" y2="242.0" /><line stroke="black" stroke-width="1" x1="209.0" x2="209.0" y1="239.0" y2="242.0" /><line stroke="black" stroke-width="1" x1="239.8" x2="239.8" y1="239.0" y2="242.0" /><line stroke="black" stroke-width="1" x1="270.6" x2="270.6" y1="239.0" y2="242.0" /><line stroke="black" stroke-width="1" x1="301.4" x2="301.4" y1="237.0" y2="242.0" /><line stroke="black" stroke-width="1" x1="332.2" x2="332.2" y1="239.0" y2="242.0" /><line stroke="black" stroke-width="1" x1="363.0" x2="363.0" y1="239.0" y2="242.0" /><line stroke="black" stroke-width="1" x1="393.8" x2="393.8" y1="239.0" y2="242.0" /><line stroke="black" stroke-width="1" x1="424.6" x2="424.6" y1="239.0" y2="242.0" /><line stroke="black" stroke-width="1" x1="455.4" x2="455.4" y1="239.0" y2="242.0" /><line stroke="black" stroke-width="1" x1="486.2" x2="486.2" y1="239.0" y2="242.0" /><line stroke="black" stroke-width="1" x1="517.0" x2="517.0" y1="239.0" y2="242.0" /><line stroke="black" stroke-width="1" x1="547.8" x2="547.8" y1="237.0" y2="242.0" /><line stroke="black" stroke-width="1" x1="578.6" x2="578.6" y1="239.0" y2="242.0" /><line stroke="black" stroke-width="1" x1="609.4" x2="609.4" y1="239.0" y2="242.0" /><line stroke="black" stroke-width="1" x1="640.2" x2="640.2" y1="239.0" y2="242.0" /><line stroke="black" stroke-width="1" x1="671.0" x2="671.0" y1="239.0" y2="242.0" /><line stroke="black" stroke-width="1" x1="701.8" x2="701.8" y1="239.0" y2="242.0" /><line stroke="black" stroke-width="1" x1="732.6" x2="732.6" y1="239.0" y2="242.0" /><line stroke="black" stroke-width="1" x1="763.4" x2="763.4" y1="239.0" y2="242.0" /><line stroke="black" stroke-width="1" x1="794.2" x2="794.2" y1="237.0" y2="242.0" /><line stroke="black" stroke-width="1" x1="825.0" x2="825.0" y1="239.0" y2="242.0" /><line stroke="black" stroke-width="1" x1="855.8" x2="855.8" y1="239.0" y2="242.0" /><line stroke="black" stroke-width="1" x1="886.6" x2="886.6" y1="239.0" y2="242.0" /><line stroke="black" stroke-width="1" x1="917.4" x2="917.4" y1="239.0" y2="242.0" /><line stroke="black" stroke-width="1" x1="948.2" x2="948.2" y1="239.0" y2="242.0" /><line stroke="black" stroke-width="1" x1="979.0" x2="979.0" y1="239.0" y2="242.0" /><line stroke="black" stroke-width="1" x1="1009.8" x2="1009.8" y1="239.0" y2="242.0" /><line stroke="black" stroke-width="1" x1="55.0" x2="1040.6" y1="242.0" y2="242.0" /><text font-family="sans-serif" font-size="16.0" text-anchor="end" x="39.0" y="229.9">40</text><text font-family="sans-serif" font-size="20" text-anchor="middle" x="547.8" y="265.3">Data</text><line stroke="black" stroke-width="1" x1="1040.6" x2="1040.6" y1="242.0" y2="276.1" /><line stroke="black" stroke-width="1" x1="85.8" x2="85.8" y1="273.1" y2="276.1" /><line stroke="black" stroke-width="1" x1="116.6" x2="116.6" y1="273.1" y2="276.1" /><line stroke="black" stroke-width="1" x1="147.4" x2="147.4" y1="273.1" y2="276.1" /><line stroke="black" stroke-width="1" x1="178.2" x2="178.2" y1="273.1" y2="276.1" /><line stroke="black" stroke-width="1" x1="209.0" x2="209.0" y1="273.1" y2="276.1" /><line stroke="black" stroke-width="1" x1="239.8" x2="239.8" y1="273.1" y2="276.1" /><line stroke="black" stroke-width="1" x1="270.6" x2="270.6" y1="273.1" y2="276.1" /><line stroke="black" stroke-width="1" x1="301.4" x2="301.4" y1="271.1" y2="276.1" /><line stroke="black" stroke-width="1" x1="332.2" x2="332.2" y1="273.1" y2="276.1" /><line stroke="black" stroke-width="1" x1="363.0" x2="363.0" y1="273.1" y2="276.1" /><line stroke="black" stroke-width="1" x1="393.8" x2="393.8" y1="273.1" y2="276.1" /><line stroke="black" stroke-width="1" x1="424.6" x2="424.6" y1="273.1" y2="276.1" /><line stroke="black" stroke-width="1" x1="455.4" x2="455.4" y1="273.1" y2="276.1" /><line stroke="black" stroke-width="1" x1="486.2" x2="486.2" y1="273.1" y2="276.1" /><line stroke="black" stroke-width="1" x1="517.0" x2="517.0" y1="273.1" y2="276.1" /><line stroke="black" stroke-width="1" x1="547.8" x2="547.8" y1="271.1" y2="276.1" /><line stroke="black" stroke-width="1" x1="578.6" x2="578.6" y1="273.1" y2="276.1" /><line stroke="black" stroke-width="1" x1="609.4" x2="609.4" y1="273.1" y2="276.1" /><line stroke="black" stroke-width="1" x1="640.2" x2="640.2" y1="273.1" y2="276.1" /><line stroke="black" stroke-width="1" x1="671.0" x2="671.0" y1="273.1" y2="276.1" /><line stroke="black" stroke-width="1" x1="701.8" x2="701.8" y1="273.1" y2="276.1" /><line stroke="black" stroke-width="1" x1="732.6" x2="732.6" y1="273.1" y2="276.1" /><line stroke="black" stroke-width="1" x1="763.4" x2="763.4" y1="273.1" y2="276.1" /><line stroke="black" stroke-width="1" x1="794.2" x2="794.2" y1="271.1" y2="276.1" /><line stroke="black" stroke-width="1" x1="825.0" x2="825.0" y1="273.1" y2="276.1" /><line stroke="black" stroke-width="1" x1="855.8" x2="855.8" y1="273.1" y2="276.1" /><line stroke="black" stroke-width="1" x1="886.6" x2="886.6" y1="273.1" y2="276.1" /><line stroke="black" stroke-width="1" x1="917.4" x2="917.4" y1="273.1" y2="276.1" /><line stroke="black" stroke-width="1" x1="948.2" x2="948.2" y1="273.1" y2="276.1" /><line stroke="black" stroke-width="1" x1="979.0" x2="979.0" y1="273.1" y2="276.1" /><line stroke="black" stroke-width="1" x1="1009.8" x2="1009.8" y1="273.1" y2="276.1" /><text font-family="sans-serif" font-size="16.0" text-anchor="end" x="39.0" y="264.0">48</text><rect fill="none" height="238.7" stroke="black" stroke-width="1" width="985.6" x="55.0" y="37.4" /></g></defs><use transform="scale(0.65,0.65)" x="0" y="0" ns1:href="#whole-drawing" /></svg>
