<svg xmlns="http://www.w3.org/2000/svg" height="20px" id="commit" version="1.1" viewBox="0 0 20 20" width="20px">
  <defs />
  <g fill-rule="evenodd" stroke="black" stroke-width="1">
    <circle cx="10" cy="10" fill="#222222" r="10" />
    <path d="M8.42666753,5.52118606 L8.39272716,5.48799992 L10.9372725,3 L10.9372725,4.65866661 L11.0432953,4.65866661 L11.7854543,4.65866661 C12.4480997,4.68458341 13.0312188,4.94374747 13.5348293,5.43616658 C14.0384397,5.9285857 14.3034939,6.49874664 14.3299997,7.14666653 L14.3299997,10.2177914 L14.3299997,12.3559164 C14.5862225,12.5027782 14.7916395,12.6993109 14.9462568,12.9455205 C15.100874,13.1917301 15.1781815,13.4703314 15.1781815,13.781333 C15.1693462,14.2564742 15.0058961,14.6495397 14.6878264,14.9605413 C14.3697566,15.2715428 13.9677578,15.4313606 13.4818179,15.4399996 C12.995878,15.4313606 12.5938792,15.2715428 12.2758094,14.9605413 C11.9577397,14.6495397 11.7942896,14.2564742 11.7854543,13.781333 C11.7854543,13.4703314 11.8627618,13.1917301 12.017379,12.9455205 C12.1719963,12.6993109 12.3774132,12.5027782 12.6336361,12.3559164 L12.6336361,7.14666653 C12.6248008,6.93069323 12.5364494,6.74063958 12.3685793,6.57649988 C12.2007091,6.41236018 12.0063361,6.32597215 11.7854543,6.31733322 L10.9372725,6.31733322 L10.9372725,7.97599983 L8.42666753,5.52118606 C8.39272716,5.79900146 8.3154197,6.07760283 8.16080245,6.32381239 C8.00618521,6.57002194 7.80076823,6.76655469 7.54454537,6.91341653 L7.54454537,12.342958 C7.80076823,12.4898199 8.00618521,12.6863526 8.16080245,12.9325622 C8.3154197,13.1787717 8.39272716,13.4573731 8.39272716,13.7683746 C8.38389189,14.2435159 8.22044182,14.6365814 7.90237206,14.9475829 C7.5843023,15.2585845 7.18230349,15.4184023 6.69636358,15.4270412 C6.21042367,15.4184023 5.80842486,15.2585845 5.4903551,14.9475829 C5.17228534,14.6365814 5.00883527,14.2435159 5,13.7683746 C5,13.4573731 5.07730746,13.1787717 5.23192471,12.9325622 C5.38654195,12.6863526 5.59195893,12.4898199 5.84818179,12.342958 L5.84818179,6.91341653 C5.59195893,6.76655469 5.38654195,6.57002194 5.23192471,6.32381239 C5.07730746,6.07760283 5,5.79900146 5,5.48799992 C5.00883527,5.01285867 5.17228534,4.61979317 5.4903551,4.30879162 C5.80842486,3.99779008 6.21042367,3.83797224 6.69636358,3.82933331 C7.18230349,3.83797224 7.5843023,3.99779008 7.90237206,4.30879162 C8.22044182,4.61979317 8.38389189,5.01285867 8.39272716,5.48799992 L8.42666753,5.52118606 Z M10,19 C14.9705627,19 19,14.9705627 19,10 C19,5.02943725 14.9705627,1 10,1 C5.02943725,1 1,5.02943725 1,10 C1,14.9705627 5.02943725,19 10,19 Z M13.4818179,14.6106663 C13.2432656,14.6020273 13.044475,14.5199587 12.8854401,14.3644579 C12.7264052,14.2089572 12.6468889,14.0145841 12.6468889,13.781333 C12.6468889,13.5480818 12.7264052,13.3537088 12.8854401,13.198208 C13.044475,13.0427072 13.2432656,12.964958 13.4818179,12.964958 C13.7203702,12.964958 13.9191608,13.0427072 14.0781957,13.198208 C14.2372306,13.3537088 14.3167468,13.5480818 14.3167468,13.781333 C14.3167468,14.0145841 14.2372306,14.2089572 14.0781957,14.3644579 C13.9191608,14.5199587 13.7203702,14.6020273 13.4818179,14.6106663 Z M6.69636358,14.6106663 C6.45781126,14.6020273 6.25902064,14.5199587 6.09998576,14.3644579 C5.94095088,14.2089572 5.86143463,14.0145841 5.86143463,13.781333 C5.86143463,13.5480818 5.94095088,13.3537088 6.09998576,13.198208 C6.25902064,13.0427072 6.45781126,12.964958 6.69636358,12.964958 C6.9349159,12.964958 7.13370652,13.0427072 7.2927414,13.198208 C7.45177628,13.3537088 7.53129253,13.5480818 7.53129253,13.781333 C7.53129253,14.0145841 7.45177628,14.2089572 7.2927414,14.3644579 C7.13370652,14.5199587 6.9349159,14.6020273 6.69636358,14.6106663 Z M6.69636358,6.31733322 C6.45781126,6.30869429 6.25902064,6.22662567 6.09998576,6.0711249 C5.94095088,5.91562412 5.86143463,5.72125107 5.86143463,5.48799992 C5.86143463,5.25474876 5.94095088,5.06037571 6.09998576,4.90487494 C6.25902064,4.74937416 6.45781126,4.67162494 6.69636358,4.67162494 C6.9349159,4.67162494 7.13370652,4.74937416 7.2927414,4.90487494 C7.45177628,5.06037571 7.53129253,5.25474876 7.53129253,5.48799992 C7.53129253,5.72125107 7.45177628,5.91562412 7.2927414,6.0711249 C7.13370652,6.22662567 6.9349159,6.30869429 6.69636358,6.31733322 Z" />
  </g>
</svg>
